<svg width="16" height="12" viewBox="0 0 16 12" fill="none" xmlns="http://www.w3.org/2000/svg">
<path d="M0.730403 6.00155C0.730403 5.69498 0.98094 5.44618 1.28964 5.44618L13.3609 5.44618L9.09578 1.21056C8.87731 0.99359 8.87731 0.641829 9.09578 0.424863C9.20465 0.316751 9.34783 0.261975 9.491 0.261975C9.63416 0.261975 9.7773 0.31601 9.88616 0.424863L15.1057 5.60834C15.3241 5.82531 15.3241 6.17707 15.1057 6.39403L9.88616 11.5775C9.66769 11.7945 9.31353 11.7945 9.09506 11.5775C8.87658 11.3605 8.87658 11.0088 9.09506 10.7918L13.3601 6.5562L1.28964 6.5562C0.98094 6.55694 0.730403 6.30811 0.730403 6.00155Z" fill="white"/>
</svg>
