<svg width="24" height="24" viewBox="0 0 24 24" fill="none" xmlns="http://www.w3.org/2000/svg">
<g clip-path="url(#clip0_6369_9400)">
<path d="M10.3261 7.92167C10.0472 8.95139 9.21017 9.66427 8.28018 10.4564C7.81519 10.8524 7.3502 11.3276 6.88521 11.8029C6.69921 12.0405 6.51322 12.3574 6.51322 12.6742C6.42022 12.991 6.42022 13.3871 6.42022 13.7831C6.42022 14.5752 6.60621 15.9218 7.3502 17.4267C8.09419 18.9317 9.58216 20.5951 12.1861 22.0208C12.4651 22.1792 12.7441 22.1792 12.9301 22.1792C13.2091 22.1792 13.4881 22.1 13.6741 22.0208C16.371 20.5951 17.766 18.9317 18.51 17.4267C19.254 15.9218 19.347 14.5752 19.44 13.7831C19.44 13.5455 19.44 13.3871 19.44 13.2287C19.44 13.0702 19.44 12.9118 19.347 12.6742C19.161 11.8821 17.673 11.3276 15.813 10.7732C13.8601 10.1395 11.6281 9.34743 10.1402 8.00088L10.3261 7.92167ZM7.6292 9.90189C8.65218 9.0306 9.58216 8.23851 9.48916 6.89196C9.48916 6.73354 9.58216 6.57513 9.76816 6.49592C9.95415 6.41671 10.2331 6.49592 10.4191 6.65433C11.5351 8.39693 14.1391 9.26822 16.371 9.9811C18.51 10.694 20.277 11.2484 20.463 12.5158C20.463 12.6742 20.556 12.9118 20.556 13.1494C20.556 13.3871 20.556 13.5455 20.556 13.7831C20.556 14.5752 20.37 16.0802 19.533 17.6643C18.696 19.2485 17.208 21.0703 14.3251 22.5753C13.9531 22.8129 13.4881 22.8921 13.0231 22.8921C12.5581 22.8921 12.1861 22.8129 11.7211 22.5753C8.83817 21.0703 7.3502 19.2485 6.51322 17.6643C5.67623 16.0802 5.58323 14.5752 5.49023 13.7831C5.49023 13.3079 5.49023 12.9118 5.58323 12.5158C5.67623 12.1197 5.86223 11.7237 6.14122 11.3276C6.60621 10.7732 7.1642 10.2979 7.6292 9.90189Z" fill="#7B7B7B"/>
<path d="M8.83789 20.6734C8.83789 20.4358 9.02389 20.2773 9.30288 20.2773C9.58188 20.2773 9.76787 20.4358 9.76787 20.6734V23.6041C9.76787 23.8417 9.58188 24.0002 9.30288 24.0002C9.02389 24.0002 8.83789 23.8417 8.83789 23.6041V20.6734ZM16.1848 20.6734C16.1848 20.4358 16.3708 20.2773 16.6497 20.2773C16.9287 20.2773 17.1147 20.4358 17.1147 20.6734V23.6041C17.1147 23.8417 16.9287 24.0002 16.6497 24.0002C16.3708 24.0002 16.1848 23.8417 16.1848 23.6041V20.6734Z" fill="#747474"/>
<path d="M10.7909 19.1684C10.5119 19.0892 10.4189 18.8515 10.5119 18.6931C10.6049 18.4555 10.8839 18.3763 11.0699 18.4555C11.0699 18.4555 12.7439 19.0892 14.7898 18.4555C15.0688 18.3763 15.2548 18.4555 15.3478 18.6931C15.4408 18.9307 15.3478 19.0892 15.0688 19.1684C12.6509 19.8812 10.6979 19.1684 10.6979 19.1684H10.7909Z" fill="#747474"/>
<path d="M12.2792 20.516C12.0002 20.4368 11.9072 20.1992 12.0002 20.0408C12.0932 19.8031 12.3722 19.7239 12.5582 19.8031C12.5582 19.8031 12.9302 19.8823 13.3952 19.8031C13.6742 19.7239 13.8602 19.8823 13.9532 20.12C14.0462 20.3576 13.8602 20.516 13.5812 20.5952C12.8372 20.7536 12.1862 20.5952 12.1862 20.5952L12.2792 20.516Z" fill="#747474"/>
<path d="M11.8138 17.9799C11.6278 17.8215 11.6278 17.5839 11.8138 17.4255C11.9998 17.267 12.2788 17.267 12.4648 17.4255C12.4648 17.4255 13.0228 17.8215 13.6738 17.4255C13.8598 17.267 14.1388 17.3462 14.3248 17.5047C14.5108 17.6631 14.4178 17.9007 14.2318 18.0591C13.0228 18.9304 11.8138 18.0591 11.8138 18.0591V17.9799Z" fill="#747474"/>
<path d="M8.37311 14.1792C8.18712 14.2584 7.90812 14.2584 7.72212 14.0207C7.62913 13.8623 7.62913 13.6247 7.90812 13.4663C7.90812 13.4663 10.0471 12.2782 12 13.5455C12.186 13.7039 12.279 13.9415 12.093 14.1C11.907 14.2584 11.6281 14.3376 11.4421 14.1792C9.95408 13.2287 8.37311 14.1 8.28011 14.1L8.37311 14.1792Z" fill="#747474"/>
<path d="M8.74494 15.4451C8.55894 15.3659 8.46595 15.0491 8.55894 14.8907C8.65194 14.7322 9.02394 14.653 9.20993 14.7322C9.20993 14.7322 10.0469 15.2075 11.0699 14.7322C11.2559 14.653 11.5349 14.7322 11.7209 14.8907C11.8139 15.0491 11.7209 15.2867 11.5349 15.4451C10.0469 16.0788 8.74494 15.4451 8.74494 15.4451Z" fill="#747474"/>
<path d="M6.32732 13.7031C6.51332 13.8616 6.42032 14.0992 6.23432 14.2576C6.04833 14.416 5.76933 14.3368 5.58334 14.1784C4.93235 13.5447 4.46736 12.8318 4.09536 12.0398C3.72337 11.2477 3.63037 10.4556 3.63037 9.58429C3.63037 7.52486 4.65335 5.62385 6.42032 4.27731C8.09429 2.93076 10.4192 2.13867 13.0232 2.13867C15.6272 2.13867 17.9521 2.93076 19.6261 4.27731C21.3001 5.62385 22.416 7.52486 22.416 9.58429C22.416 10.4556 22.23 11.2477 21.951 12.0398C21.579 12.8318 21.1141 13.5447 20.4631 14.1784C20.2771 14.3368 19.9981 14.3368 19.8121 14.2576C19.6261 14.0992 19.6261 13.8616 19.7191 13.7031C20.2771 13.1487 20.7421 12.515 21.0211 11.8021C21.3001 11.1685 21.486 10.3764 21.486 9.6635C21.486 7.8417 20.5561 6.17831 19.0681 4.99018C17.5801 3.80205 15.4412 3.00997 13.1162 3.00997C10.7912 3.00997 8.65228 3.72285 7.16431 4.99018C5.67633 6.17831 4.74635 7.8417 4.74635 9.6635C4.74635 10.4556 4.93235 11.1685 5.21134 11.8021C5.49034 12.515 5.95533 13.1487 6.51332 13.7031H6.32732Z" fill="#747474"/>
<path d="M9.21026 3.48518C9.21026 3.72281 9.02426 3.88123 8.74527 3.88123C8.46627 3.88123 8.28027 3.72281 8.28027 3.48518C8.37327 1.90101 9.48925 0.871296 10.9772 0.316835C11.6282 0.0792087 12.2792 0 12.9302 0C13.5812 0 14.3252 0.0792087 14.8832 0.316835C16.3711 0.792087 17.4871 1.8218 17.5801 3.48518C17.5801 3.72281 17.3941 3.88123 17.1151 3.88123C16.8361 3.88123 16.6501 3.72281 16.6501 3.48518C16.5571 2.21784 15.7201 1.42576 14.5112 1.02971C13.9532 0.871296 13.3952 0.792087 12.8372 0.792087C12.2792 0.792087 11.7212 0.871296 11.1632 1.02971C10.0472 1.42576 9.11726 2.21784 9.02426 3.48518H9.21026Z" fill="#747474"/>
<path d="M0.282247 19.0896C0.282247 19.0896 1.77022 18.5351 2.04921 17.4262C2.14221 17.1886 2.32821 17.1094 2.6072 17.1094C2.7932 17.1094 2.8862 17.2678 2.9792 17.4262C3.25819 18.6143 4.74617 19.0896 4.74617 19.0896C4.93216 19.1688 5.11816 19.4064 5.02516 19.6441C4.93216 19.7233 4.93216 19.8025 4.74617 19.8817C4.74617 19.8817 3.25819 20.4361 2.9792 21.5451C2.8862 21.7827 2.7002 21.8619 2.42121 21.8619C2.23521 21.8619 2.14221 21.7035 2.04921 21.5451C1.77022 20.3569 0.282247 19.8817 0.282247 19.8817C0.0962502 19.8025 -0.0897464 19.5648 0.0032519 19.3272C0.0962502 19.248 0.0962502 19.1688 0.282247 19.0896ZM2.51421 18.4559C2.14221 18.852 1.77022 19.1688 1.39823 19.4064C1.77022 19.6441 2.23521 19.9609 2.51421 20.3569C2.8862 19.9609 3.25819 19.6441 3.63019 19.4064C3.25819 19.1688 2.7932 18.852 2.51421 18.4559Z" fill="#747474"/>
<path d="M4.56005 11.8019C4.83905 11.7227 5.02504 11.8811 5.11804 12.1187C5.21104 12.3563 5.02504 12.5147 4.74605 12.594C4.74605 12.594 4.37406 12.6732 4.37406 13.4652C4.37406 14.1781 4.56005 15.0494 5.02504 15.6831C5.39704 16.0791 5.86203 16.4752 6.51302 16.4752C6.79201 16.4752 6.97801 16.7128 6.88501 16.8712C6.88501 17.1088 6.60601 17.2673 6.42002 17.1881C5.39704 17.1088 4.74605 16.6336 4.18806 15.9999C3.63007 15.2078 3.35107 14.1781 3.35107 13.386C3.35107 11.9603 4.46705 11.7227 4.46705 11.7227L4.56005 11.8019Z" fill="#747474"/>
<path d="M21.2071 12.5948C20.9281 12.5156 20.8351 12.3572 20.8351 12.1196C20.9281 11.8819 21.1141 11.8027 21.3931 11.8027C21.3931 11.8027 22.509 12.0404 22.509 13.4661C22.509 14.2582 22.23 15.2879 21.672 16.08C21.2071 16.7137 20.4631 17.1889 19.4401 17.2681C19.1611 17.2681 18.9751 17.1097 18.9751 16.9513C18.9751 16.7137 19.1611 16.5553 19.3471 16.5553C19.9981 16.476 20.5561 16.1592 20.8351 15.7632C21.3001 15.1295 21.4861 14.2582 21.4861 13.5453C21.4861 12.7532 21.1141 12.674 21.1141 12.674L21.2071 12.5948Z" fill="#747474"/>
<path d="M19.5331 21.3863C19.5331 21.3863 20.9281 20.911 21.1141 19.8813C21.2071 19.6437 21.3931 19.5645 21.6721 19.5645C21.8581 19.5645 21.9511 19.7229 22.0441 19.8813C22.3231 20.911 23.625 21.3863 23.625 21.3863C23.904 21.4655 23.997 21.7031 23.904 21.8615C23.811 21.9407 23.718 22.0199 23.625 22.0991C23.625 22.0991 22.2301 22.5744 22.0441 23.6041C21.9511 23.8417 21.7651 23.9209 21.4861 23.9209C21.3001 23.9209 21.2071 23.7625 21.1141 23.6041C20.8351 22.5744 19.5331 22.0991 19.5331 22.0991C19.2541 22.0199 19.1611 21.7823 19.2541 21.6239C19.3471 21.5447 19.4401 21.4655 19.5331 21.3863ZM21.5791 20.911C21.3001 21.307 20.9281 21.5447 20.5561 21.7823C20.8351 21.9407 21.2071 22.2575 21.5791 22.6536C21.8581 22.2575 22.2301 22.0199 22.6021 21.7823C22.3231 21.6239 21.9511 21.307 21.5791 20.911Z" fill="#747474"/>
<path d="M17.8588 13.4652C18.0448 13.5444 18.1378 13.782 18.0448 14.0197C17.9518 14.1781 17.6728 14.2573 17.3938 14.1781C17.3938 14.1781 15.7198 13.3068 14.2319 14.2573C14.0459 14.4157 13.7669 14.3365 13.5809 14.1781C13.3949 14.0197 13.4879 13.782 13.6739 13.6236C15.6268 12.3563 17.7658 13.5444 17.7658 13.5444L17.8588 13.4652Z" fill="#747474"/>
<path d="M16.5567 14.813C16.7427 14.7338 17.0217 14.7338 17.2077 14.9714C17.3007 15.1298 17.3007 15.3675 17.0217 15.5259C17.0217 15.5259 15.7197 16.2388 14.2318 15.5259C14.0458 15.4467 13.9528 15.209 14.0458 14.9714C14.1388 14.813 14.4178 14.7338 14.6967 14.813C15.7197 15.2882 16.5567 14.813 16.5567 14.813Z" fill="#747474"/>
</g>
<defs>
<clipPath id="clip0_6369_9400">
<rect width="24" height="24.0002" fill="white"/>
</clipPath>
</defs>
</svg>
