<svg width="113" height="24" viewBox="0 0 113 24" fill="none" xmlns="http://www.w3.org/2000/svg">
<path d="M18.0001 7.16C17.9401 7.15 17.8701 7.15 17.8101 7.16C16.4301 7.11 15.3301 5.98 15.3301 4.58C15.3301 3.15 16.4801 2 17.9101 2C19.3401 2 20.4901 3.16 20.4901 4.58C20.4801 5.98 19.3801 7.11 18.0001 7.16Z" stroke="#33363B" stroke-width="1.5" stroke-linecap="round" stroke-linejoin="round"/>
<path d="M16.9704 14.4402C18.3404 14.6702 19.8504 14.4302 20.9104 13.7202C22.3204 12.7802 22.3204 11.2402 20.9104 10.3002C19.8404 9.59016 18.3104 9.35016 16.9404 9.59016" stroke="#33363B" stroke-width="1.5" stroke-linecap="round" stroke-linejoin="round"/>
<path d="M5.97047 7.16C6.03047 7.15 6.10047 7.15 6.16047 7.16C7.54047 7.11 8.64047 5.98 8.64047 4.58C8.64047 3.15 7.49047 2 6.06047 2C4.63047 2 3.48047 3.16 3.48047 4.58C3.49047 5.98 4.59047 7.11 5.97047 7.16Z" stroke="#33363B" stroke-width="1.5" stroke-linecap="round" stroke-linejoin="round"/>
<path d="M7.00043 14.4402C5.63043 14.6702 4.12043 14.4302 3.06043 13.7202C1.65043 12.7802 1.65043 11.2402 3.06043 10.3002C4.13043 9.59016 5.66043 9.35016 7.03043 9.59016" stroke="#33363B" stroke-width="1.5" stroke-linecap="round" stroke-linejoin="round"/>
<path d="M12.0001 14.6307C11.9401 14.6207 11.8701 14.6207 11.8101 14.6307C10.4301 14.5807 9.33008 13.4507 9.33008 12.0507C9.33008 10.6207 10.4801 9.4707 11.9101 9.4707C13.3401 9.4707 14.4901 10.6307 14.4901 12.0507C14.4801 13.4507 13.3801 14.5907 12.0001 14.6307Z" stroke="#33363B" stroke-width="1.5" stroke-linecap="round" stroke-linejoin="round"/>
<path d="M9.08973 17.7813C7.67973 18.7213 7.67973 20.2613 9.08973 21.2013C10.6897 22.2713 13.3097 22.2713 14.9097 21.2013C16.3197 20.2613 16.3197 18.7213 14.9097 17.7813C13.3197 16.7213 10.6897 16.7213 9.08973 17.7813Z" stroke="#33363B" stroke-width="1.5" stroke-linecap="round" stroke-linejoin="round"/>
<path d="M39.875 13.2969H41.8281C41.7656 14.0417 41.5573 14.7057 41.2031 15.2891C40.849 15.8672 40.3516 16.3229 39.7109 16.6562C39.0703 16.9896 38.2917 17.1562 37.375 17.1562C36.6719 17.1562 36.0391 17.0312 35.4766 16.7812C34.9141 16.526 34.4323 16.1667 34.0312 15.7031C33.6302 15.2344 33.3229 14.6693 33.1094 14.0078C32.901 13.3464 32.7969 12.6068 32.7969 11.7891V10.8438C32.7969 10.026 32.9036 9.28646 33.1172 8.625C33.3359 7.96354 33.6484 7.39844 34.0547 6.92969C34.4609 6.45573 34.9479 6.09375 35.5156 5.84375C36.0885 5.59375 36.7318 5.46875 37.4453 5.46875C38.3516 5.46875 39.1172 5.63542 39.7422 5.96875C40.3672 6.30208 40.8516 6.76302 41.1953 7.35156C41.5443 7.9401 41.7578 8.61458 41.8359 9.375H39.8828C39.8307 8.88542 39.7161 8.46615 39.5391 8.11719C39.3672 7.76823 39.112 7.5026 38.7734 7.32031C38.4349 7.13281 37.9922 7.03906 37.4453 7.03906C36.9974 7.03906 36.6068 7.1224 36.2734 7.28906C35.9401 7.45573 35.6615 7.70052 35.4375 8.02344C35.2135 8.34635 35.0443 8.74479 34.9297 9.21875C34.8203 9.6875 34.7656 10.224 34.7656 10.8281V11.7891C34.7656 12.362 34.8151 12.8828 34.9141 13.3516C35.0182 13.8151 35.1745 14.2135 35.3828 14.5469C35.5964 14.8802 35.8672 15.138 36.1953 15.3203C36.5234 15.5026 36.9167 15.5938 37.375 15.5938C37.9323 15.5938 38.3828 15.5052 38.7266 15.3281C39.0755 15.151 39.3385 14.8932 39.5156 14.5547C39.6979 14.2109 39.8177 13.7917 39.875 13.2969ZM48.7478 15.0078V8.54688H50.6384V17H48.8572L48.7478 15.0078ZM49.0134 13.25L49.6462 13.2344C49.6462 13.8021 49.5837 14.3255 49.4587 14.8047C49.3337 15.2786 49.141 15.6927 48.8806 16.0469C48.6202 16.3958 48.2869 16.6693 47.8806 16.8672C47.4744 17.0599 46.9874 17.1562 46.4197 17.1562C46.0082 17.1562 45.6306 17.0964 45.2869 16.9766C44.9431 16.8568 44.6462 16.6719 44.3962 16.4219C44.1515 16.1719 43.9614 15.8464 43.8259 15.4453C43.6905 15.0443 43.6228 14.5651 43.6228 14.0078V8.54688H45.5056V14.0234C45.5056 14.3307 45.5421 14.5885 45.615 14.7969C45.6879 15 45.7869 15.1641 45.9119 15.2891C46.0369 15.4141 46.1827 15.5026 46.3494 15.5547C46.516 15.6068 46.6931 15.6328 46.8806 15.6328C47.4171 15.6328 47.839 15.5286 48.1462 15.3203C48.4587 15.1068 48.6801 14.8203 48.8103 14.4609C48.9457 14.1016 49.0134 13.6979 49.0134 13.25ZM57.5503 14.7109C57.5503 14.5234 57.5034 14.3542 57.4097 14.2031C57.3159 14.0469 57.1362 13.9062 56.8706 13.7812C56.6102 13.6562 56.2248 13.5417 55.7144 13.4375C55.2665 13.3385 54.855 13.2214 54.48 13.0859C54.1102 12.9453 53.7925 12.776 53.5269 12.5781C53.2612 12.3802 53.0555 12.1458 52.9097 11.875C52.7639 11.6042 52.6909 11.2917 52.6909 10.9375C52.6909 10.5938 52.7665 10.2682 52.9175 9.96094C53.0685 9.65365 53.2847 9.38281 53.5659 9.14844C53.8472 8.91406 54.1883 8.72917 54.5894 8.59375C54.9956 8.45833 55.4487 8.39062 55.9487 8.39062C56.6571 8.39062 57.2639 8.51042 57.7691 8.75C58.2795 8.98438 58.6701 9.30469 58.9409 9.71094C59.2118 10.112 59.3472 10.5651 59.3472 11.0703H57.4644C57.4644 10.8464 57.4071 10.638 57.2925 10.4453C57.1831 10.2474 57.0165 10.0885 56.7925 9.96875C56.5685 9.84375 56.2873 9.78125 55.9487 9.78125C55.6258 9.78125 55.3576 9.83333 55.1441 9.9375C54.9357 10.0365 54.7795 10.1667 54.6753 10.3281C54.5764 10.4896 54.5269 10.6667 54.5269 10.8594C54.5269 11 54.5529 11.1276 54.605 11.2422C54.6623 11.3516 54.756 11.4531 54.8862 11.5469C55.0165 11.6354 55.1935 11.7188 55.4175 11.7969C55.6467 11.875 55.9331 11.9505 56.2769 12.0234C56.9227 12.1589 57.4774 12.3333 57.9409 12.5469C58.4097 12.7552 58.7691 13.026 59.0191 13.3594C59.2691 13.6875 59.3941 14.1042 59.3941 14.6094C59.3941 14.9844 59.3133 15.3281 59.1519 15.6406C58.9956 15.9479 58.7665 16.2161 58.4644 16.4453C58.1623 16.6693 57.8003 16.8438 57.3784 16.9688C56.9618 17.0938 56.493 17.1562 55.9722 17.1562C55.2066 17.1562 54.5581 17.0208 54.0269 16.75C53.4956 16.474 53.092 16.1224 52.8159 15.6953C52.5451 15.263 52.4097 14.8151 52.4097 14.3516H54.23C54.2508 14.7005 54.3472 14.9792 54.5191 15.1875C54.6961 15.3906 54.9149 15.5391 55.1753 15.6328C55.4409 15.7214 55.7144 15.7656 55.9956 15.7656C56.3342 15.7656 56.618 15.7214 56.8472 15.6328C57.0764 15.5391 57.2508 15.4141 57.3706 15.2578C57.4904 15.0964 57.5503 14.9141 57.5503 14.7109ZM65.1575 8.54688V9.92188H60.3919V8.54688H65.1575ZM61.7669 6.47656H63.6497V14.6641C63.6497 14.9245 63.6861 15.125 63.7591 15.2656C63.8372 15.401 63.944 15.4922 64.0794 15.5391C64.2148 15.5859 64.3736 15.6094 64.5559 15.6094C64.6861 15.6094 64.8111 15.6016 64.9309 15.5859C65.0507 15.5703 65.1471 15.5547 65.22 15.5391L65.2278 16.9766C65.0716 17.0234 64.8893 17.0651 64.6809 17.1016C64.4778 17.138 64.2434 17.1562 63.9778 17.1562C63.5455 17.1562 63.1627 17.0807 62.8294 16.9297C62.496 16.7734 62.2356 16.5208 62.0481 16.1719C61.8606 15.8229 61.7669 15.3594 61.7669 14.7812V6.47656ZM66.3037 12.8672V12.6875C66.3037 12.0781 66.3923 11.513 66.5694 10.9922C66.7465 10.4661 67.0017 10.0104 67.335 9.625C67.6735 9.23438 68.085 8.93229 68.5694 8.71875C69.059 8.5 69.611 8.39062 70.2256 8.39062C70.8454 8.39062 71.3975 8.5 71.8819 8.71875C72.3715 8.93229 72.7855 9.23438 73.1241 9.625C73.4626 10.0104 73.7204 10.4661 73.8975 10.9922C74.0746 11.513 74.1631 12.0781 74.1631 12.6875V12.8672C74.1631 13.4766 74.0746 14.0417 73.8975 14.5625C73.7204 15.0833 73.4626 15.5391 73.1241 15.9297C72.7855 16.3151 72.3741 16.6172 71.8897 16.8359C71.4053 17.0495 70.8558 17.1562 70.2412 17.1562C69.6215 17.1562 69.0668 17.0495 68.5772 16.8359C68.0928 16.6172 67.6814 16.3151 67.3428 15.9297C67.0043 15.5391 66.7465 15.0833 66.5694 14.5625C66.3923 14.0417 66.3037 13.4766 66.3037 12.8672ZM68.1866 12.6875V12.8672C68.1866 13.2474 68.2256 13.6068 68.3037 13.9453C68.3819 14.2839 68.5043 14.5807 68.6709 14.8359C68.8376 15.0911 69.0511 15.2917 69.3116 15.4375C69.572 15.5833 69.8819 15.6562 70.2412 15.6562C70.5902 15.6562 70.8923 15.5833 71.1475 15.4375C71.4079 15.2917 71.6215 15.0911 71.7881 14.8359C71.9548 14.5807 72.0772 14.2839 72.1553 13.9453C72.2386 13.6068 72.2803 13.2474 72.2803 12.8672V12.6875C72.2803 12.3125 72.2386 11.9583 72.1553 11.625C72.0772 11.2865 71.9522 10.987 71.7803 10.7266C71.6136 10.4661 71.4001 10.263 71.1397 10.1172C70.8845 9.96615 70.5798 9.89062 70.2256 9.89062C69.8715 9.89062 69.5642 9.96615 69.3037 10.1172C69.0485 10.263 68.8376 10.4661 68.6709 10.7266C68.5043 10.987 68.3819 11.2865 68.3037 11.625C68.2256 11.9583 68.1866 12.3125 68.1866 12.6875ZM77.8641 10.2656V17H75.9813V8.54688H77.7547L77.8641 10.2656ZM77.5594 12.4609L76.9188 12.4531C76.9188 11.8698 76.9917 11.3307 77.1375 10.8359C77.2833 10.3411 77.4969 9.91146 77.7781 9.54688C78.0594 9.17708 78.4083 8.89323 78.825 8.69531C79.2469 8.49219 79.7339 8.39062 80.2859 8.39062C80.6714 8.39062 81.0229 8.44792 81.3406 8.5625C81.6635 8.67188 81.9422 8.84635 82.1766 9.08594C82.4161 9.32552 82.5984 9.63281 82.7234 10.0078C82.8536 10.3828 82.9188 10.8359 82.9188 11.3672V17H81.0359V11.5312C81.0359 11.1198 80.9734 10.7969 80.8484 10.5625C80.7286 10.3281 80.5542 10.1615 80.325 10.0625C80.101 9.95833 79.8328 9.90625 79.5203 9.90625C79.1661 9.90625 78.8641 9.97396 78.6141 10.1094C78.3693 10.2448 78.1688 10.4297 78.0125 10.6641C77.8563 10.8984 77.7417 11.1693 77.6688 11.4766C77.5958 11.7839 77.5594 12.112 77.5594 12.4609ZM82.8016 11.9609L81.9188 12.1562C81.9188 11.6458 81.9891 11.1641 82.1297 10.7109C82.2755 10.2526 82.4865 9.85156 82.7625 9.50781C83.0438 9.15885 83.3901 8.88542 83.8016 8.6875C84.213 8.48958 84.6844 8.39062 85.2156 8.39062C85.6479 8.39062 86.0333 8.45052 86.3719 8.57031C86.7156 8.6849 87.0073 8.86719 87.2469 9.11719C87.4865 9.36719 87.6688 9.69271 87.7938 10.0938C87.9188 10.4896 87.9813 10.9688 87.9813 11.5312V17H86.0906V11.5234C86.0906 11.0964 86.0281 10.7656 85.9031 10.5312C85.7833 10.2969 85.6115 10.1354 85.3875 10.0469C85.1635 9.95312 84.8953 9.90625 84.5828 9.90625C84.2911 9.90625 84.0333 9.96094 83.8094 10.0703C83.5906 10.1745 83.4057 10.3229 83.2547 10.5156C83.1036 10.7031 82.9891 10.9193 82.9109 11.1641C82.838 11.4089 82.8016 11.6745 82.8016 11.9609ZM93.8853 17.1562C93.2603 17.1562 92.6952 17.0547 92.19 16.8516C91.69 16.6432 91.2629 16.3542 90.9087 15.9844C90.5598 15.6146 90.2916 15.1797 90.1041 14.6797C89.9166 14.1797 89.8228 13.6406 89.8228 13.0625V12.75C89.8228 12.0885 89.9192 11.4896 90.1119 10.9531C90.3046 10.4167 90.5728 9.95833 90.9166 9.57812C91.2603 9.19271 91.6666 8.89844 92.1353 8.69531C92.6041 8.49219 93.1119 8.39062 93.6587 8.39062C94.2629 8.39062 94.7916 8.49219 95.2447 8.69531C95.6978 8.89844 96.0728 9.1849 96.3697 9.55469C96.6718 9.91927 96.8957 10.3542 97.0416 10.8594C97.1926 11.3646 97.2681 11.9219 97.2681 12.5312V13.3359H90.7369V11.9844H95.4087V11.8359C95.3983 11.4974 95.3306 11.1797 95.2056 10.8828C95.0858 10.5859 94.9009 10.3464 94.6509 10.1641C94.4009 9.98177 94.0676 9.89062 93.6509 9.89062C93.3384 9.89062 93.0598 9.95833 92.815 10.0938C92.5754 10.224 92.3749 10.4141 92.2134 10.6641C92.052 10.9141 91.927 11.2161 91.8384 11.5703C91.7551 11.9193 91.7134 12.3125 91.7134 12.75V13.0625C91.7134 13.4323 91.7629 13.776 91.8619 14.0938C91.966 14.4062 92.1171 14.6797 92.315 14.9141C92.5129 15.1484 92.7525 15.3333 93.0337 15.4688C93.315 15.599 93.6353 15.6641 93.9947 15.6641C94.4478 15.6641 94.8515 15.5729 95.2056 15.3906C95.5598 15.2083 95.8671 14.9505 96.1275 14.6172L97.1197 15.5781C96.9374 15.8438 96.7004 16.099 96.4087 16.3438C96.1171 16.5833 95.7603 16.7786 95.3384 16.9297C94.9218 17.0807 94.4374 17.1562 93.8853 17.1562ZM100.868 10.1562V17H98.9847V8.54688H100.782L100.868 10.1562ZM103.453 8.49219L103.438 10.2422C103.323 10.2214 103.198 10.2057 103.063 10.1953C102.933 10.1849 102.802 10.1797 102.672 10.1797C102.349 10.1797 102.065 10.2266 101.821 10.3203C101.576 10.4089 101.37 10.5391 101.203 10.7109C101.042 10.8776 100.917 11.0807 100.828 11.3203C100.74 11.5599 100.688 11.8281 100.672 12.125L100.243 12.1562C100.243 11.625 100.295 11.1328 100.399 10.6797C100.503 10.2266 100.659 9.82812 100.868 9.48438C101.081 9.14062 101.347 8.8724 101.664 8.67969C101.987 8.48698 102.36 8.39062 102.782 8.39062C102.896 8.39062 103.019 8.40104 103.149 8.42188C103.284 8.44271 103.386 8.46615 103.453 8.49219ZM109.615 14.7109C109.615 14.5234 109.568 14.3542 109.475 14.2031C109.381 14.0469 109.201 13.9062 108.936 13.7812C108.675 13.6562 108.29 13.5417 107.779 13.4375C107.331 13.3385 106.92 13.2214 106.545 13.0859C106.175 12.9453 105.857 12.776 105.592 12.5781C105.326 12.3802 105.121 12.1458 104.975 11.875C104.829 11.6042 104.756 11.2917 104.756 10.9375C104.756 10.5938 104.831 10.2682 104.982 9.96094C105.134 9.65365 105.35 9.38281 105.631 9.14844C105.912 8.91406 106.253 8.72917 106.654 8.59375C107.061 8.45833 107.514 8.39062 108.014 8.39062C108.722 8.39062 109.329 8.51042 109.834 8.75C110.344 8.98438 110.735 9.30469 111.006 9.71094C111.277 10.112 111.412 10.5651 111.412 11.0703H109.529C109.529 10.8464 109.472 10.638 109.357 10.4453C109.248 10.2474 109.081 10.0885 108.857 9.96875C108.634 9.84375 108.352 9.78125 108.014 9.78125C107.691 9.78125 107.423 9.83333 107.209 9.9375C107.001 10.0365 106.844 10.1667 106.74 10.3281C106.641 10.4896 106.592 10.6667 106.592 10.8594C106.592 11 106.618 11.1276 106.67 11.2422C106.727 11.3516 106.821 11.4531 106.951 11.5469C107.081 11.6354 107.259 11.7188 107.482 11.7969C107.712 11.875 107.998 11.9505 108.342 12.0234C108.988 12.1589 109.542 12.3333 110.006 12.5469C110.475 12.7552 110.834 13.026 111.084 13.3594C111.334 13.6875 111.459 14.1042 111.459 14.6094C111.459 14.9844 111.378 15.3281 111.217 15.6406C111.061 15.9479 110.831 16.2161 110.529 16.4453C110.227 16.6693 109.865 16.8438 109.443 16.9688C109.027 17.0938 108.558 17.1562 108.037 17.1562C107.272 17.1562 106.623 17.0208 106.092 16.75C105.561 16.474 105.157 16.1224 104.881 15.6953C104.61 15.263 104.475 14.8151 104.475 14.3516H106.295C106.316 14.7005 106.412 14.9792 106.584 15.1875C106.761 15.3906 106.98 15.5391 107.24 15.6328C107.506 15.7214 107.779 15.7656 108.061 15.7656C108.399 15.7656 108.683 15.7214 108.912 15.6328C109.141 15.5391 109.316 15.4141 109.436 15.2578C109.555 15.0964 109.615 14.9141 109.615 14.7109Z" fill="#33363B"/>
</svg>
