<svg width="77" height="24" viewBox="0 0 77 24" fill="none" xmlns="http://www.w3.org/2000/svg">
<path d="M3 7H21" stroke="#33363B" stroke-width="1.5" stroke-linecap="round"/>
<path d="M3 12H21" stroke="#33363B" stroke-width="1.5" stroke-linecap="round"/>
<path d="M3 17H21" stroke="#33363B" stroke-width="1.5" stroke-linecap="round"/>
<path d="M35.1172 5.625V17H33.1562V5.625H35.1172ZM39.7578 10.6016V12.1562H34.6172V10.6016H39.7578ZM40.4062 5.625V7.1875H34.6172V5.625H40.4062ZM45.5759 17.1562C44.9509 17.1562 44.3858 17.0547 43.8806 16.8516C43.3806 16.6432 42.9535 16.3542 42.5994 15.9844C42.2504 15.6146 41.9822 15.1797 41.7947 14.6797C41.6072 14.1797 41.5134 13.6406 41.5134 13.0625V12.75C41.5134 12.0885 41.6098 11.4896 41.8025 10.9531C41.9952 10.4167 42.2634 9.95833 42.6072 9.57812C42.9509 9.19271 43.3572 8.89844 43.8259 8.69531C44.2947 8.49219 44.8025 8.39062 45.3494 8.39062C45.9535 8.39062 46.4822 8.49219 46.9353 8.69531C47.3884 8.89844 47.7634 9.1849 48.0603 9.55469C48.3624 9.91927 48.5864 10.3542 48.7322 10.8594C48.8832 11.3646 48.9587 11.9219 48.9587 12.5312V13.3359H42.4275V11.9844H47.0994V11.8359C47.089 11.4974 47.0212 11.1797 46.8962 10.8828C46.7765 10.5859 46.5916 10.3464 46.3416 10.1641C46.0916 9.98177 45.7582 9.89062 45.3416 9.89062C45.0291 9.89062 44.7504 9.95833 44.5056 10.0938C44.266 10.224 44.0655 10.4141 43.9041 10.6641C43.7426 10.9141 43.6176 11.2161 43.5291 11.5703C43.4457 11.9193 43.4041 12.3125 43.4041 12.75V13.0625C43.4041 13.4323 43.4535 13.776 43.5525 14.0938C43.6567 14.4062 43.8077 14.6797 44.0056 14.9141C44.2035 15.1484 44.4431 15.3333 44.7244 15.4688C45.0056 15.599 45.3259 15.6641 45.6853 15.6641C46.1384 15.6641 46.5421 15.5729 46.8962 15.3906C47.2504 15.2083 47.5577 14.9505 47.8181 14.6172L48.8103 15.5781C48.628 15.8438 48.391 16.099 48.0994 16.3438C47.8077 16.5833 47.4509 16.7786 47.0291 16.9297C46.6124 17.0807 46.128 17.1562 45.5759 17.1562ZM54.3941 17.1562C53.7691 17.1562 53.204 17.0547 52.6987 16.8516C52.1987 16.6432 51.7717 16.3542 51.4175 15.9844C51.0685 15.6146 50.8003 15.1797 50.6128 14.6797C50.4253 14.1797 50.3316 13.6406 50.3316 13.0625V12.75C50.3316 12.0885 50.4279 11.4896 50.6206 10.9531C50.8133 10.4167 51.0816 9.95833 51.4253 9.57812C51.7691 9.19271 52.1753 8.89844 52.6441 8.69531C53.1128 8.49219 53.6206 8.39062 54.1675 8.39062C54.7717 8.39062 55.3003 8.49219 55.7534 8.69531C56.2066 8.89844 56.5816 9.1849 56.8784 9.55469C57.1805 9.91927 57.4045 10.3542 57.5503 10.8594C57.7014 11.3646 57.7769 11.9219 57.7769 12.5312V13.3359H51.2456V11.9844H55.9175V11.8359C55.9071 11.4974 55.8394 11.1797 55.7144 10.8828C55.5946 10.5859 55.4097 10.3464 55.1597 10.1641C54.9097 9.98177 54.5764 9.89062 54.1597 9.89062C53.8472 9.89062 53.5685 9.95833 53.3237 10.0938C53.0842 10.224 52.8836 10.4141 52.7222 10.6641C52.5607 10.9141 52.4357 11.2161 52.3472 11.5703C52.2639 11.9193 52.2222 12.3125 52.2222 12.75V13.0625C52.2222 13.4323 52.2717 13.776 52.3706 14.0938C52.4748 14.4062 52.6258 14.6797 52.8237 14.9141C53.0217 15.1484 53.2612 15.3333 53.5425 15.4688C53.8237 15.599 54.1441 15.6641 54.5034 15.6641C54.9566 15.6641 55.3602 15.5729 55.7144 15.3906C56.0685 15.2083 56.3758 14.9505 56.6362 14.6172L57.6284 15.5781C57.4461 15.8438 57.2092 16.099 56.9175 16.3438C56.6258 16.5833 56.2691 16.7786 55.8472 16.9297C55.4305 17.0807 54.9461 17.1562 54.3941 17.1562ZM64.6419 15.25V5H66.5325V17H64.8216L64.6419 15.25ZM59.1419 12.8672V12.7031C59.1419 12.0625 59.2174 11.4792 59.3684 10.9531C59.5195 10.4219 59.7382 9.96615 60.0247 9.58594C60.3111 9.20052 60.6601 8.90625 61.0716 8.70312C61.483 8.49479 61.9466 8.39062 62.4622 8.39062C62.9726 8.39062 63.4205 8.48958 63.8059 8.6875C64.1914 8.88542 64.5195 9.16927 64.7903 9.53906C65.0611 9.90365 65.2773 10.3411 65.4387 10.8516C65.6002 11.3568 65.7148 11.9193 65.7825 12.5391V13.0625C65.7148 13.6667 65.6002 14.2188 65.4387 14.7188C65.2773 15.2188 65.0611 15.651 64.7903 16.0156C64.5195 16.3802 64.1887 16.6615 63.7981 16.8594C63.4127 17.0573 62.9622 17.1562 62.4466 17.1562C61.9361 17.1562 61.4752 17.0495 61.0637 16.8359C60.6575 16.6224 60.3111 16.3229 60.0247 15.9375C59.7382 15.5521 59.5195 15.099 59.3684 14.5781C59.2174 14.0521 59.1419 13.4818 59.1419 12.8672ZM61.0247 12.7031V12.8672C61.0247 13.2526 61.0585 13.612 61.1262 13.9453C61.1992 14.2786 61.3111 14.5729 61.4622 14.8281C61.6132 15.0781 61.8085 15.276 62.0481 15.4219C62.2929 15.5625 62.5846 15.6328 62.9231 15.6328C63.3502 15.6328 63.7018 15.5391 63.9778 15.3516C64.2539 15.1641 64.47 14.9115 64.6262 14.5938C64.7877 14.2708 64.8971 13.9115 64.9544 13.5156V12.1016C64.9231 11.7943 64.858 11.5078 64.7591 11.2422C64.6653 10.9766 64.5377 10.7448 64.3762 10.5469C64.2148 10.3438 64.0143 10.1875 63.7747 10.0781C63.5403 9.96354 63.2617 9.90625 62.9387 9.90625C62.595 9.90625 62.3033 9.97917 62.0637 10.125C61.8242 10.2708 61.6262 10.4714 61.47 10.7266C61.319 10.9818 61.207 11.2786 61.1341 11.6172C61.0611 11.9557 61.0247 12.3177 61.0247 12.7031ZM73.4834 14.7109C73.4834 14.5234 73.4366 14.3542 73.3428 14.2031C73.2491 14.0469 73.0694 13.9062 72.8037 13.7812C72.5433 13.6562 72.1579 13.5417 71.6475 13.4375C71.1996 13.3385 70.7881 13.2214 70.4131 13.0859C70.0433 12.9453 69.7256 12.776 69.46 12.5781C69.1944 12.3802 68.9886 12.1458 68.8428 11.875C68.697 11.6042 68.6241 11.2917 68.6241 10.9375C68.6241 10.5938 68.6996 10.2682 68.8506 9.96094C69.0017 9.65365 69.2178 9.38281 69.4991 9.14844C69.7803 8.91406 70.1215 8.72917 70.5225 8.59375C70.9287 8.45833 71.3819 8.39062 71.8819 8.39062C72.5902 8.39062 73.197 8.51042 73.7022 8.75C74.2126 8.98438 74.6032 9.30469 74.8741 9.71094C75.1449 10.112 75.2803 10.5651 75.2803 11.0703H73.3975C73.3975 10.8464 73.3402 10.638 73.2256 10.4453C73.1162 10.2474 72.9496 10.0885 72.7256 9.96875C72.5017 9.84375 72.2204 9.78125 71.8819 9.78125C71.559 9.78125 71.2907 9.83333 71.0772 9.9375C70.8689 10.0365 70.7126 10.1667 70.6084 10.3281C70.5095 10.4896 70.46 10.6667 70.46 10.8594C70.46 11 70.486 11.1276 70.5381 11.2422C70.5954 11.3516 70.6892 11.4531 70.8194 11.5469C70.9496 11.6354 71.1267 11.7188 71.3506 11.7969C71.5798 11.875 71.8662 11.9505 72.21 12.0234C72.8558 12.1589 73.4105 12.3333 73.8741 12.5469C74.3428 12.7552 74.7022 13.026 74.9522 13.3594C75.2022 13.6875 75.3272 14.1042 75.3272 14.6094C75.3272 14.9844 75.2465 15.3281 75.085 15.6406C74.9287 15.9479 74.6996 16.2161 74.3975 16.4453C74.0954 16.6693 73.7334 16.8438 73.3116 16.9688C72.8949 17.0938 72.4261 17.1562 71.9053 17.1562C71.1397 17.1562 70.4912 17.0208 69.96 16.75C69.4287 16.474 69.0251 16.1224 68.7491 15.6953C68.4782 15.263 68.3428 14.8151 68.3428 14.3516H70.1631C70.184 14.7005 70.2803 14.9792 70.4522 15.1875C70.6293 15.3906 70.848 15.5391 71.1084 15.6328C71.3741 15.7214 71.6475 15.7656 71.9287 15.7656C72.2673 15.7656 72.5511 15.7214 72.7803 15.6328C73.0095 15.5391 73.184 15.4141 73.3037 15.2578C73.4235 15.0964 73.4834 14.9141 73.4834 14.7109Z" fill="#33363B"/>
</svg>
