<svg width="63" height="71" viewBox="0 0 63 71" fill="none" xmlns="http://www.w3.org/2000/svg">
<g filter="url(#filter0_d_916_10614)">
<rect x="3.79004" width="56.21" height="55.9996" rx="27.9998" fill="white"/>
<path d="M47.0003 31.2326C46.8964 31.2479 46.7929 31.2633 46.689 31.279C44.7696 31.5714 43.0878 32.3598 41.6702 33.693C40.1635 35.1103 39.1901 36.8315 38.7538 38.8533C38.6787 39.202 38.6349 39.5574 38.5763 39.9095C38.5713 39.9397 38.5647 39.9695 38.5499 39.9994C38.5293 39.855 38.5098 39.7102 38.4884 39.5661C38.1864 37.5515 37.3809 35.7728 36.0036 34.2621C35.1885 33.3681 34.2475 32.6406 33.1563 32.1121C32.3597 31.7263 31.5232 31.4652 30.6512 31.317C30.4798 31.288 30.3072 31.2662 30.1352 31.2407C30.1218 31.2387 30.1091 31.2329 30.0972 31.2157C30.2062 31.201 30.3156 31.1867 30.4247 31.1717C31.2609 31.0556 32.0662 30.8288 32.8354 30.4822C34.9527 29.5278 36.5115 27.9919 37.5514 25.9231C38.0025 25.0256 38.2978 24.0762 38.462 23.0859C38.4977 22.8715 38.5223 22.6554 38.5597 22.4355C38.5655 22.4648 38.5734 22.4939 38.5768 22.5234C38.7222 23.776 39.0546 24.974 39.6429 26.0922C40.5644 27.8437 41.8811 29.2154 43.6221 30.168C44.4488 30.6202 45.3318 30.9207 46.2571 31.0957C46.5037 31.1424 46.7522 31.1792 46.9997 31.2207C47 31.2247 47.0003 31.2288 47.0003 31.2326Z" fill="#A2A2A2"/>
<path d="M24.6432 31.9072C24.6241 31.785 24.6081 31.6626 24.5858 31.5411C24.258 29.7583 23.3251 28.3967 21.7477 27.4917C21.1949 27.1746 20.5927 26.9913 19.9632 26.8959C19.911 26.888 19.8588 26.8805 19.8066 26.8727C19.8037 26.8724 19.8011 26.8698 19.79 26.8634C19.8066 26.8555 19.8176 26.8468 19.8298 26.8451C21.5525 26.611 22.8631 25.7353 23.7942 24.2817C24.229 23.603 24.4901 22.8554 24.6073 22.0577C24.6197 21.9722 24.6325 21.8863 24.647 21.7871C24.6838 22.0012 24.7129 22.2019 24.7535 22.4003C24.9971 23.5908 25.5639 24.6017 26.4484 25.4339C27.2481 26.1866 28.1949 26.6406 29.2763 26.8187C29.3476 26.8306 29.4193 26.8402 29.4921 26.8611C28.1975 27.0412 27.0941 27.5883 26.1963 28.54C25.3032 29.4874 24.8089 30.6169 24.6432 31.9072Z" fill="#A2A2A2"/>
<path d="M37.6389 20.5164C36.4775 20.6806 35.4883 21.1723 34.6831 22.0254C33.8831 22.873 33.4404 23.8862 33.3009 25.0468C33.2484 24.7857 33.2107 24.5348 33.1469 24.2908C32.7709 22.8582 31.9387 21.7739 30.6409 21.0562C30.124 20.7705 29.5636 20.6104 28.9785 20.5347C28.9663 20.5332 28.9545 20.5306 28.9214 20.5251C28.9597 20.5132 28.9785 20.5045 28.998 20.5019C30.4379 20.3044 31.5631 19.5914 32.3953 18.4111C32.869 17.7393 33.1498 16.9871 33.2641 16.1732C33.2722 16.116 33.28 16.0586 33.2997 16C33.3052 16.0293 33.3119 16.0586 33.3157 16.0879C33.4181 16.8725 33.6635 17.607 34.0989 18.271C34.6677 19.1386 35.4176 19.7939 36.3847 20.1878C36.7693 20.3444 37.1687 20.4459 37.5803 20.5005C37.6006 20.5034 37.6195 20.5112 37.6389 20.5164Z" fill="#A2A2A2"/>
<path d="M28.9328 38.8794C28.8066 37.9567 28.4492 37.1433 27.8047 36.4628C27.1587 35.7808 26.3668 35.384 25.4351 35.2538C26.3694 35.1232 27.1622 34.7224 27.8079 34.0407C28.4518 33.361 28.81 32.5468 28.9235 31.6113C28.9319 31.6316 28.9391 31.645 28.9432 31.6595C28.9473 31.6743 28.9481 31.6902 28.9502 31.7056C29.1059 32.8433 29.6304 33.7715 30.5363 34.4787C31.0462 34.8767 31.6278 35.1154 32.2654 35.2192C32.3173 35.2277 32.3695 35.2355 32.4374 35.2462C32.4058 35.2572 32.3878 35.2671 32.3692 35.2697C30.585 35.5128 29.4302 36.8622 29.0737 38.1965C29.0209 38.3941 28.9902 38.5974 28.9493 38.7979C28.9438 38.8251 28.9383 38.8521 28.9328 38.8794Z" fill="#A2A2A2"/>
</g>
<defs>
<filter id="filter0_d_916_10614" x="0.790039" y="0" width="62.21" height="71" filterUnits="userSpaceOnUse" color-interpolation-filters="sRGB">
<feFlood flood-opacity="0" result="BackgroundImageFix"/>
<feColorMatrix in="SourceAlpha" type="matrix" values="0 0 0 0 0 0 0 0 0 0 0 0 0 0 0 0 0 0 127 0" result="hardAlpha"/>
<feMorphology radius="4" operator="erode" in="SourceAlpha" result="effect1_dropShadow_916_10614"/>
<feOffset dy="12"/>
<feGaussianBlur stdDeviation="3.5"/>
<feColorMatrix type="matrix" values="0 0 0 0 0.0392157 0 0 0 0 0.0496732 0 0 0 0 0.0705882 0 0 0 0.08 0"/>
<feBlend mode="normal" in2="BackgroundImageFix" result="effect1_dropShadow_916_10614"/>
<feBlend mode="normal" in="SourceGraphic" in2="effect1_dropShadow_916_10614" result="shape"/>
</filter>
</defs>
</svg>
