<svg width="340" height="66" viewBox="0 0 340 66" fill="none" xmlns="http://www.w3.org/2000/svg">
<g clip-path="url(#clip0_905_8926)">
<path d="M33.1637 3.4836L41.1731 38.0888L47.7418 3.4836H57.7578L46.9357 52.1086H36.8168L28.876 19.5894L20.9352 52.1086H10.8163L-0.00585938 3.4836H10.0102L16.6132 38.0204L24.6569 3.4836H33.1637ZM59.9874 34.1393V33.7118C59.9874 30.1214 60.6849 26.9241 62.0798 24.1202C63.4633 21.3162 65.4528 19.1448 68.0483 17.6061C70.6552 16.0787 73.6737 15.315 77.1039 15.315C81.9975 15.315 85.9937 16.8025 89.0922 19.7774C92.1794 22.7638 93.9001 26.8159 94.2546 31.9337L94.3232 34.4128C94.3232 39.9524 92.7739 44.3977 89.6753 47.7488C86.5653 51.0999 82.3977 52.7754 77.1725 52.7754C71.9472 52.7754 67.7796 51.1056 64.6696 47.7659C61.5481 44.4262 59.9874 39.884 59.9874 34.1393ZM69.6776 34.4128C69.6776 37.8437 70.3236 40.4653 71.6156 42.2776C72.9076 44.0899 74.7599 44.9961 77.1725 44.9961C79.5164 44.9961 81.3515 44.1013 82.6778 42.3118C83.9927 40.5223 84.6502 37.6556 84.6502 33.7118C84.6502 30.3493 83.9927 27.7448 82.6778 25.8983C81.3515 24.0518 79.4935 23.1285 77.1039 23.1285C74.7371 23.1285 72.9076 24.0461 71.6156 25.8812C70.3236 27.7163 69.6776 30.5602 69.6776 34.4128ZM120.787 15.7424L120.667 25.0263C119.34 24.844 118.174 24.7528 117.168 24.7528C113.509 24.7528 111.108 25.9895 109.965 28.4629V52.1086H100.292V15.9818H109.433L109.707 20.2904C111.651 16.9735 114.344 15.315 117.785 15.315C118.849 15.315 119.849 15.4575 120.787 15.7424ZM147.799 52.1086L138.486 37.61L134.988 41.0808V52.1086H125.315V0.816406H134.988V29.2323L136.874 26.8216L146.153 15.9818H157.781L144.678 31.0446L158.913 52.1086H147.799ZM181.586 42.1237C181.586 40.9383 181.003 40.0094 179.837 39.3369C178.659 38.653 176.778 38.0432 174.194 37.5074C165.573 35.7065 161.263 32.0591 161.263 26.5651C161.263 23.3622 162.595 20.6836 165.259 18.5293C167.934 16.3864 171.421 15.315 175.721 15.315C180.328 15.315 184.01 16.3921 186.766 18.5464C189.521 20.7121 190.899 23.5161 190.899 26.9583H181.226C181.226 25.5791 180.78 24.4393 179.888 23.5389C178.996 22.6384 177.601 22.1882 175.703 22.1882C174.068 22.1882 172.805 22.5529 171.913 23.2824C171.021 24.0233 170.575 24.9636 170.575 26.1035C170.575 27.1635 171.084 28.0241 172.102 28.6852C173.108 29.3349 174.817 29.8991 177.23 30.3778C179.642 30.8566 181.678 31.398 183.336 32.0021C188.446 33.8714 191.002 37.1142 191.002 41.7305C191.002 45.0246 189.584 47.6861 186.749 49.715C183.913 51.7553 180.248 52.7754 175.755 52.7754C172.725 52.7754 170.032 52.234 167.677 51.1512C165.322 50.0797 163.469 48.6037 162.12 46.7229C160.782 44.8422 160.113 42.8076 160.113 40.6192H169.289C169.381 42.3403 170.021 43.6568 171.21 44.5687C172.388 45.4805 173.971 45.9365 175.961 45.9365C177.813 45.9365 179.214 45.5831 180.163 44.8764C181.112 44.1811 181.586 43.2636 181.586 42.1237ZM229.865 33.8828V34.3786C229.865 39.941 228.596 44.3977 226.058 47.7488C223.52 51.0999 220.095 52.7754 215.785 52.7754C212.126 52.7754 209.17 51.5045 206.918 48.9627V66.0088H197.228V15.9818H206.215L206.54 19.521C208.884 16.717 211.943 15.315 215.716 15.315C220.187 15.315 223.663 16.9621 226.144 20.2562C228.625 23.5503 229.865 28.0925 229.865 33.8828ZM220.175 33.6776C220.175 30.3151 219.581 27.722 218.392 25.8983C217.191 24.0746 215.453 23.1627 213.178 23.1627C210.136 23.1627 208.05 24.3196 206.918 26.6335V41.4227C208.095 43.805 210.205 44.9961 213.246 44.9961C217.866 44.9961 220.175 41.2233 220.175 33.6776ZM266.637 52.1086H256.861C256.415 51.2424 256.089 50.1652 255.883 48.8772C253.539 51.476 250.492 52.7754 246.742 52.7754C243.197 52.7754 240.253 51.7496 237.909 49.6979C235.577 47.6576 234.41 45.0759 234.41 41.9528C234.41 38.1229 235.834 35.1879 238.681 33.1476C241.528 31.0959 245.644 30.0587 251.029 30.0359H255.489V27.9671C255.489 26.2915 255.06 24.9579 254.202 23.9663C253.333 22.9632 251.973 22.4617 250.121 22.4617C248.497 22.4617 247.222 22.8493 246.296 23.6243C245.37 24.3994 244.907 25.4652 244.907 26.8216H235.217C235.217 24.7357 235.863 22.8037 237.155 21.0255C238.458 19.236 240.293 17.8397 242.66 16.8367C245.027 15.8222 247.685 15.315 250.635 15.315C255.094 15.315 258.639 16.432 261.268 18.6661C263.887 20.9002 265.196 24.0461 265.196 28.1039V43.7651C265.219 47.1846 265.699 49.7777 266.637 51.5444V52.1086ZM248.851 45.3893C250.281 45.3893 251.601 45.0759 252.813 44.449C254.014 43.8107 254.906 42.9558 255.489 41.8844V35.678H251.87C247.022 35.678 244.444 37.3479 244.135 40.6876L244.101 41.2518C244.101 42.46 244.524 43.4516 245.37 44.2267C246.216 45.0018 247.376 45.3893 248.851 45.3893ZM287.715 44.9961C289.499 44.9961 290.951 44.506 292.071 43.5257C293.18 42.5455 293.758 41.2461 293.803 39.6275H302.893C302.87 42.0667 302.196 44.3065 300.87 46.3468C299.555 48.3871 297.754 49.9658 295.467 51.0828C293.18 52.2112 290.653 52.7754 287.886 52.7754C282.695 52.7754 278.608 51.1341 275.624 47.8514C272.628 44.5687 271.13 40.0322 271.13 34.2418V33.6092C271.13 28.0469 272.617 23.6072 275.589 20.2904C278.551 16.9735 282.627 15.315 287.818 15.315C292.346 15.315 295.976 16.5973 298.709 19.1619C301.453 21.7379 302.848 25.1631 302.893 29.4375H293.803C293.758 27.5681 293.18 26.0465 292.071 24.8725C290.951 23.7098 289.476 23.1285 287.646 23.1285C285.394 23.1285 283.69 23.9435 282.535 25.5735C281.381 27.2148 280.803 29.8706 280.803 33.5408V34.5496C280.803 38.2654 281.375 40.9326 282.518 42.5512C283.662 44.1811 285.394 44.9961 287.715 44.9961ZM325.086 52.7754C319.781 52.7754 315.459 51.1512 312.12 47.9027C308.782 44.6542 307.112 40.3228 307.112 34.9086V33.9683C307.112 30.3436 307.816 27.1008 309.222 24.2399C310.628 21.3789 312.618 19.1733 315.19 17.6232C317.774 16.0844 320.719 15.315 324.023 15.315C328.985 15.315 332.89 16.8709 335.737 19.9826C338.584 23.1057 340.008 27.5226 340.008 33.2331V37.1826H316.923C317.231 39.542 318.175 41.4341 319.752 42.8589C321.33 44.2837 323.326 44.9961 325.738 44.9961C329.466 44.9961 332.375 43.6511 334.468 40.9611L339.236 46.2613C337.784 48.313 335.817 49.9088 333.336 51.0486C330.855 52.1998 328.105 52.7754 325.086 52.7754ZM323.989 23.1285C322.068 23.1285 320.513 23.7725 319.324 25.0605C318.123 26.3485 317.357 28.1951 317.026 30.6001H330.489V29.8307C330.443 27.6992 329.86 26.0465 328.739 24.8725C327.63 23.7098 326.047 23.1285 323.989 23.1285Z" fill="black"/>
</g>
<defs>
<clipPath id="clip0_905_8926">
<rect width="340" height="65.1839" fill="white" transform="translate(0 0.816406)"/>
</clipPath>
</defs>
</svg>
