<svg width="94" height="24" viewBox="0 0 94 24" fill="none" xmlns="http://www.w3.org/2000/svg">
<path d="M21 7V17C21 20 19.5 22 16 22H8C4.5 22 3 20 3 17V7C3 4 4.5 2 8 2H16C19.5 2 21 4 21 7Z" stroke="#33363B" stroke-width="1.5" stroke-miterlimit="10" stroke-linecap="round" stroke-linejoin="round"/>
<path d="M14.5 4.5V6.5C14.5 7.6 15.4 8.5 16.5 8.5H18.5" stroke="#33363B" stroke-width="1.5" stroke-miterlimit="10" stroke-linecap="round" stroke-linejoin="round"/>
<path d="M8 13H12" stroke="#33363B" stroke-width="1.5" stroke-miterlimit="10" stroke-linecap="round" stroke-linejoin="round"/>
<path d="M8 17H16" stroke="#33363B" stroke-width="1.5" stroke-miterlimit="10" stroke-linecap="round" stroke-linejoin="round"/>
<path d="M37.1562 5.625H41.1797C42.0443 5.625 42.7812 5.75521 43.3906 6.01562C44 6.27604 44.4661 6.66146 44.7891 7.17188C45.1172 7.67708 45.2812 8.30208 45.2812 9.04688C45.2812 9.61458 45.1771 10.1146 44.9688 10.5469C44.7604 10.9792 44.4661 11.3438 44.0859 11.6406C43.7057 11.9323 43.2526 12.1589 42.7266 12.3203L42.1328 12.6094H38.5156L38.5 11.0547H41.2109C41.6797 11.0547 42.0703 10.9714 42.3828 10.8047C42.6953 10.638 42.9297 10.4115 43.0859 10.125C43.2474 9.83333 43.3281 9.50521 43.3281 9.14062C43.3281 8.74479 43.25 8.40104 43.0938 8.10938C42.9427 7.8125 42.7083 7.58594 42.3906 7.42969C42.0729 7.26823 41.6693 7.1875 41.1797 7.1875H39.1172V17H37.1562V5.625ZM43.6484 17L40.9766 11.8906L43.0312 11.8828L45.7422 16.8984V17H43.6484ZM51.0134 17.1562C50.3884 17.1562 49.8233 17.0547 49.3181 16.8516C48.8181 16.6432 48.391 16.3542 48.0369 15.9844C47.6879 15.6146 47.4197 15.1797 47.2322 14.6797C47.0447 14.1797 46.9509 13.6406 46.9509 13.0625V12.75C46.9509 12.0885 47.0473 11.4896 47.24 10.9531C47.4327 10.4167 47.7009 9.95833 48.0447 9.57812C48.3884 9.19271 48.7947 8.89844 49.2634 8.69531C49.7322 8.49219 50.24 8.39062 50.7869 8.39062C51.391 8.39062 51.9197 8.49219 52.3728 8.69531C52.8259 8.89844 53.2009 9.1849 53.4978 9.55469C53.7999 9.91927 54.0239 10.3542 54.1697 10.8594C54.3207 11.3646 54.3962 11.9219 54.3962 12.5312V13.3359H47.865V11.9844H52.5369V11.8359C52.5265 11.4974 52.4587 11.1797 52.3337 10.8828C52.214 10.5859 52.0291 10.3464 51.7791 10.1641C51.5291 9.98177 51.1957 9.89062 50.7791 9.89062C50.4666 9.89062 50.1879 9.95833 49.9431 10.0938C49.7035 10.224 49.503 10.4141 49.3416 10.6641C49.1801 10.9141 49.0551 11.2161 48.9666 11.5703C48.8832 11.9193 48.8416 12.3125 48.8416 12.75V13.0625C48.8416 13.4323 48.891 13.776 48.99 14.0938C49.0942 14.4062 49.2452 14.6797 49.4431 14.9141C49.641 15.1484 49.8806 15.3333 50.1619 15.4688C50.4431 15.599 50.7634 15.6641 51.1228 15.6641C51.5759 15.6641 51.9796 15.5729 52.3337 15.3906C52.6879 15.2083 52.9952 14.9505 53.2556 14.6172L54.2478 15.5781C54.0655 15.8438 53.8285 16.099 53.5369 16.3438C53.2452 16.5833 52.8884 16.7786 52.4666 16.9297C52.0499 17.0807 51.5655 17.1562 51.0134 17.1562ZM57.9956 10.1719V20.25H56.1128V8.54688H57.8472L57.9956 10.1719ZM63.5034 12.6953V12.8594C63.5034 13.474 63.4305 14.0443 63.2847 14.5703C63.1441 15.0911 62.9331 15.5469 62.6519 15.9375C62.3758 16.3229 62.0347 16.6224 61.6284 16.8359C61.2222 17.0495 60.7534 17.1562 60.2222 17.1562C59.6961 17.1562 59.2352 17.0599 58.8394 16.8672C58.4487 16.6693 58.118 16.3906 57.8472 16.0312C57.5764 15.6719 57.3576 15.25 57.1909 14.7656C57.0295 14.276 56.9149 13.7396 56.8472 13.1562V12.5234C56.9149 11.9036 57.0295 11.3411 57.1909 10.8359C57.3576 10.3307 57.5764 9.89583 57.8472 9.53125C58.118 9.16667 58.4487 8.88542 58.8394 8.6875C59.23 8.48958 59.6857 8.39062 60.2066 8.39062C60.7378 8.39062 61.2092 8.49479 61.6206 8.70312C62.0321 8.90625 62.3784 9.19792 62.6597 9.57812C62.9409 9.95312 63.1519 10.4062 63.2925 10.9375C63.4331 11.4635 63.5034 12.0495 63.5034 12.6953ZM61.6206 12.8594V12.6953C61.6206 12.3047 61.5842 11.9427 61.5112 11.6094C61.4383 11.2708 61.3237 10.974 61.1675 10.7188C61.0112 10.4635 60.8107 10.2656 60.5659 10.125C60.3264 9.97917 60.0373 9.90625 59.6987 9.90625C59.3654 9.90625 59.079 9.96354 58.8394 10.0781C58.5998 10.1875 58.3993 10.3411 58.2378 10.5391C58.0764 10.737 57.9514 10.9688 57.8628 11.2344C57.7743 11.4948 57.7118 11.7786 57.6753 12.0859V13.6016C57.7378 13.9766 57.8446 14.3203 57.9956 14.6328C58.1467 14.9453 58.3602 15.1953 58.6362 15.3828C58.9175 15.5651 59.2769 15.6562 59.7144 15.6562C60.0529 15.6562 60.342 15.5833 60.5816 15.4375C60.8211 15.2917 61.0165 15.0911 61.1675 14.8359C61.3237 14.5755 61.4383 14.276 61.5112 13.9375C61.5842 13.599 61.6206 13.2396 61.6206 12.8594ZM64.9856 12.8672V12.6875C64.9856 12.0781 65.0742 11.513 65.2512 10.9922C65.4283 10.4661 65.6835 10.0104 66.0169 9.625C66.3554 9.23438 66.7669 8.93229 67.2512 8.71875C67.7408 8.5 68.2929 8.39062 68.9075 8.39062C69.5273 8.39062 70.0794 8.5 70.5637 8.71875C71.0533 8.93229 71.4674 9.23438 71.8059 9.625C72.1445 10.0104 72.4023 10.4661 72.5794 10.9922C72.7565 11.513 72.845 12.0781 72.845 12.6875V12.8672C72.845 13.4766 72.7565 14.0417 72.5794 14.5625C72.4023 15.0833 72.1445 15.5391 71.8059 15.9297C71.4674 16.3151 71.0559 16.6172 70.5716 16.8359C70.0872 17.0495 69.5377 17.1562 68.9231 17.1562C68.3033 17.1562 67.7486 17.0495 67.2591 16.8359C66.7747 16.6172 66.3632 16.3151 66.0247 15.9297C65.6861 15.5391 65.4283 15.0833 65.2512 14.5625C65.0742 14.0417 64.9856 13.4766 64.9856 12.8672ZM66.8684 12.6875V12.8672C66.8684 13.2474 66.9075 13.6068 66.9856 13.9453C67.0637 14.2839 67.1861 14.5807 67.3528 14.8359C67.5195 15.0911 67.733 15.2917 67.9934 15.4375C68.2539 15.5833 68.5637 15.6562 68.9231 15.6562C69.2721 15.6562 69.5742 15.5833 69.8294 15.4375C70.0898 15.2917 70.3033 15.0911 70.47 14.8359C70.6367 14.5807 70.7591 14.2839 70.8372 13.9453C70.9205 13.6068 70.9622 13.2474 70.9622 12.8672V12.6875C70.9622 12.3125 70.9205 11.9583 70.8372 11.625C70.7591 11.2865 70.6341 10.987 70.4622 10.7266C70.2955 10.4661 70.082 10.263 69.8216 10.1172C69.5664 9.96615 69.2617 9.89062 68.9075 9.89062C68.5533 9.89062 68.246 9.96615 67.9856 10.1172C67.7304 10.263 67.5195 10.4661 67.3528 10.7266C67.1861 10.987 67.0637 11.2865 66.9856 11.625C66.9075 11.9583 66.8684 12.3125 66.8684 12.6875ZM76.5537 10.1562V17H74.6709V8.54688H76.4678L76.5537 10.1562ZM79.1397 8.49219L79.1241 10.2422C79.0095 10.2214 78.8845 10.2057 78.7491 10.1953C78.6189 10.1849 78.4886 10.1797 78.3584 10.1797C78.0355 10.1797 77.7517 10.2266 77.5069 10.3203C77.2621 10.4089 77.0564 10.5391 76.8897 10.7109C76.7282 10.8776 76.6032 11.0807 76.5147 11.3203C76.4261 11.5599 76.3741 11.8281 76.3584 12.125L75.9287 12.1562C75.9287 11.625 75.9808 11.1328 76.085 10.6797C76.1892 10.2266 76.3454 9.82812 76.5537 9.48438C76.7673 9.14062 77.0329 8.8724 77.3506 8.67969C77.6735 8.48698 78.0459 8.39062 78.4678 8.39062C78.5824 8.39062 78.7048 8.40104 78.835 8.42188C78.9704 8.44271 79.072 8.46615 79.1397 8.49219ZM84.825 8.54688V9.92188H80.0594V8.54688H84.825ZM81.4344 6.47656H83.3172V14.6641C83.3172 14.9245 83.3536 15.125 83.4266 15.2656C83.5047 15.401 83.6115 15.4922 83.7469 15.5391C83.8823 15.5859 84.0411 15.6094 84.2234 15.6094C84.3536 15.6094 84.4786 15.6016 84.5984 15.5859C84.7182 15.5703 84.8146 15.5547 84.8875 15.5391L84.8953 16.9766C84.7391 17.0234 84.5568 17.0651 84.3484 17.1016C84.1453 17.138 83.9109 17.1562 83.6453 17.1562C83.213 17.1562 82.8302 17.0807 82.4969 16.9297C82.1635 16.7734 81.9031 16.5208 81.7156 16.1719C81.5281 15.8229 81.4344 15.3594 81.4344 14.7812V6.47656ZM91.2603 14.7109C91.2603 14.5234 91.2134 14.3542 91.1197 14.2031C91.0259 14.0469 90.8462 13.9062 90.5806 13.7812C90.3202 13.6562 89.9348 13.5417 89.4244 13.4375C88.9765 13.3385 88.565 13.2214 88.19 13.0859C87.8202 12.9453 87.5025 12.776 87.2369 12.5781C86.9712 12.3802 86.7655 12.1458 86.6197 11.875C86.4739 11.6042 86.4009 11.2917 86.4009 10.9375C86.4009 10.5938 86.4765 10.2682 86.6275 9.96094C86.7785 9.65365 86.9947 9.38281 87.2759 9.14844C87.5572 8.91406 87.8983 8.72917 88.2994 8.59375C88.7056 8.45833 89.1587 8.39062 89.6587 8.39062C90.3671 8.39062 90.9739 8.51042 91.4791 8.75C91.9895 8.98438 92.3801 9.30469 92.6509 9.71094C92.9218 10.112 93.0572 10.5651 93.0572 11.0703H91.1744C91.1744 10.8464 91.1171 10.638 91.0025 10.4453C90.8931 10.2474 90.7265 10.0885 90.5025 9.96875C90.2785 9.84375 89.9973 9.78125 89.6587 9.78125C89.3358 9.78125 89.0676 9.83333 88.8541 9.9375C88.6457 10.0365 88.4895 10.1667 88.3853 10.3281C88.2864 10.4896 88.2369 10.6667 88.2369 10.8594C88.2369 11 88.2629 11.1276 88.315 11.2422C88.3723 11.3516 88.466 11.4531 88.5962 11.5469C88.7265 11.6354 88.9035 11.7188 89.1275 11.7969C89.3567 11.875 89.6431 11.9505 89.9869 12.0234C90.6327 12.1589 91.1874 12.3333 91.6509 12.5469C92.1197 12.7552 92.4791 13.026 92.7291 13.3594C92.9791 13.6875 93.1041 14.1042 93.1041 14.6094C93.1041 14.9844 93.0233 15.3281 92.8619 15.6406C92.7056 15.9479 92.4765 16.2161 92.1744 16.4453C91.8723 16.6693 91.5103 16.8438 91.0884 16.9688C90.6718 17.0938 90.203 17.1562 89.6822 17.1562C88.9166 17.1562 88.2681 17.0208 87.7369 16.75C87.2056 16.474 86.802 16.1224 86.5259 15.6953C86.2551 15.263 86.1197 14.8151 86.1197 14.3516H87.94C87.9608 14.7005 88.0572 14.9792 88.2291 15.1875C88.4061 15.3906 88.6249 15.5391 88.8853 15.6328C89.1509 15.7214 89.4244 15.7656 89.7056 15.7656C90.0442 15.7656 90.328 15.7214 90.5572 15.6328C90.7864 15.5391 90.9608 15.4141 91.0806 15.2578C91.2004 15.0964 91.2603 14.9141 91.2603 14.7109Z" fill="#33363B"/>
</svg>
