<svg width="73" height="24" viewBox="0 0 73 24" fill="none" xmlns="http://www.w3.org/2000/svg">
<path d="M9.5 13.7502C9.5 14.7202 10.25 15.5002 11.17 15.5002H13.05C13.85 15.5002 14.5 14.8202 14.5 13.9702C14.5 13.0602 14.1 12.7302 13.51 12.5202L10.5 11.4702C9.91 11.2602 9.51001 10.9402 9.51001 10.0202C9.51001 9.18023 10.16 8.49023 10.96 8.49023H12.84C13.76 8.49023 14.51 9.27023 14.51 10.2402" stroke="#33363B" stroke-width="1.5" stroke-linecap="round" stroke-linejoin="round"/>
<path d="M12 7.5V16.5" stroke="#33363B" stroke-width="1.5" stroke-linecap="round" stroke-linejoin="round"/>
<path d="M22 12C22 17.52 17.52 22 12 22C6.48 22 2 17.52 2 12C2 6.48 6.48 2 12 2" stroke="#33363B" stroke-width="1.5" stroke-linecap="round" stroke-linejoin="round"/>
<path d="M22 6V2H18" stroke="#33363B" stroke-width="1.5" stroke-linecap="round" stroke-linejoin="round"/>
<path d="M17 7L22 2" stroke="#33363B" stroke-width="1.5" stroke-linecap="round" stroke-linejoin="round"/>
<path d="M39.1406 14.0703C39.1406 13.8359 39.1042 13.6276 39.0312 13.4453C38.9635 13.263 38.8411 13.0964 38.6641 12.9453C38.487 12.7943 38.237 12.6484 37.9141 12.5078C37.5964 12.362 37.1901 12.2135 36.6953 12.0625C36.1536 11.8958 35.6536 11.7109 35.1953 11.5078C34.7422 11.2995 34.3464 11.0599 34.0078 10.7891C33.6693 10.513 33.4062 10.1979 33.2188 9.84375C33.0312 9.48438 32.9375 9.07031 32.9375 8.60156C32.9375 8.13802 33.0339 7.71615 33.2266 7.33594C33.4245 6.95573 33.7031 6.6276 34.0625 6.35156C34.4271 6.07031 34.8568 5.85417 35.3516 5.70312C35.8464 5.54688 36.3932 5.46875 36.9922 5.46875C37.8359 5.46875 38.5625 5.625 39.1719 5.9375C39.7865 6.25 40.2578 6.66927 40.5859 7.19531C40.9193 7.72135 41.0859 8.30208 41.0859 8.9375H39.1406C39.1406 8.5625 39.0599 8.23177 38.8984 7.94531C38.7422 7.65365 38.5026 7.42448 38.1797 7.25781C37.862 7.09115 37.4583 7.00781 36.9688 7.00781C36.5052 7.00781 36.1198 7.07812 35.8125 7.21875C35.5052 7.35938 35.276 7.54948 35.125 7.78906C34.974 8.02865 34.8984 8.29948 34.8984 8.60156C34.8984 8.8151 34.9479 9.01042 35.0469 9.1875C35.1458 9.35938 35.2969 9.52083 35.5 9.67188C35.7031 9.81771 35.9583 9.95573 36.2656 10.0859C36.5729 10.2161 36.9349 10.3411 37.3516 10.4609C37.9818 10.6484 38.5312 10.8568 39 11.0859C39.4688 11.3099 39.8594 11.5651 40.1719 11.8516C40.4844 12.138 40.7188 12.4635 40.875 12.8281C41.0312 13.1875 41.1094 13.5964 41.1094 14.0547C41.1094 14.5339 41.013 14.9661 40.8203 15.3516C40.6276 15.7318 40.3516 16.0573 39.9922 16.3281C39.638 16.5938 39.2109 16.7995 38.7109 16.9453C38.2161 17.0859 37.6641 17.1562 37.0547 17.1562C36.5078 17.1562 35.9688 17.0833 35.4375 16.9375C34.9115 16.7917 34.4323 16.5703 34 16.2734C33.5677 15.9714 33.224 15.5964 32.9688 15.1484C32.7135 14.6953 32.5859 14.1667 32.5859 13.5625H34.5469C34.5469 13.9323 34.6094 14.2474 34.7344 14.5078C34.8646 14.7682 35.0443 14.9818 35.2734 15.1484C35.5026 15.3099 35.7682 15.4297 36.0703 15.5078C36.3776 15.5859 36.7057 15.625 37.0547 15.625C37.513 15.625 37.8958 15.5599 38.2031 15.4297C38.5156 15.2995 38.75 15.1172 38.9062 14.8828C39.0625 14.6484 39.1406 14.3776 39.1406 14.0703ZM47.6619 15.3047V11.2734C47.6619 10.9714 47.6072 10.7109 47.4978 10.4922C47.3884 10.2734 47.2218 10.1042 46.9978 9.98438C46.7791 9.86458 46.503 9.80469 46.1697 9.80469C45.8624 9.80469 45.5968 9.85677 45.3728 9.96094C45.1489 10.0651 44.9744 10.2057 44.8494 10.3828C44.7244 10.5599 44.6619 10.7604 44.6619 10.9844H42.7869C42.7869 10.651 42.8676 10.3281 43.0291 10.0156C43.1905 9.70312 43.4249 9.42448 43.7322 9.17969C44.0395 8.9349 44.4067 8.74219 44.8337 8.60156C45.2608 8.46094 45.74 8.39062 46.2712 8.39062C46.9067 8.39062 47.4692 8.4974 47.9587 8.71094C48.4535 8.92448 48.8416 9.2474 49.1228 9.67969C49.4093 10.1068 49.5525 10.6432 49.5525 11.2891V15.0469C49.5525 15.4323 49.5785 15.7786 49.6306 16.0859C49.6879 16.388 49.7686 16.651 49.8728 16.875V17H47.9431C47.8546 16.7969 47.7843 16.5391 47.7322 16.2266C47.6853 15.9089 47.6619 15.6016 47.6619 15.3047ZM47.9353 11.8594L47.9509 13.0234H46.5994C46.2504 13.0234 45.9431 13.0573 45.6775 13.125C45.4119 13.1875 45.1905 13.2812 45.0134 13.4062C44.8364 13.5312 44.7035 13.6823 44.615 13.8594C44.5265 14.0365 44.4822 14.237 44.4822 14.4609C44.4822 14.6849 44.5343 14.8906 44.6384 15.0781C44.7426 15.2604 44.8936 15.4036 45.0916 15.5078C45.2947 15.612 45.5395 15.6641 45.8259 15.6641C46.2114 15.6641 46.5473 15.5859 46.8337 15.4297C47.1254 15.2682 47.3546 15.0729 47.5212 14.8438C47.6879 14.6094 47.7765 14.388 47.7869 14.1797L48.3962 15.0156C48.3337 15.2292 48.227 15.4583 48.0759 15.7031C47.9249 15.9479 47.727 16.1823 47.4822 16.4062C47.2426 16.625 46.9535 16.8047 46.615 16.9453C46.2817 17.0859 45.8962 17.1562 45.4587 17.1562C44.9067 17.1562 44.4145 17.0469 43.9822 16.8281C43.5499 16.6042 43.2114 16.3047 42.9666 15.9297C42.7218 15.5495 42.5994 15.1198 42.5994 14.6406C42.5994 14.1927 42.6827 13.7969 42.8494 13.4531C43.0212 13.1042 43.2712 12.8125 43.5994 12.5781C43.9327 12.3438 44.339 12.1667 44.8181 12.0469C45.2973 11.9219 45.8442 11.8594 46.4587 11.8594H47.9353ZM53.7769 5V17H51.8862V5H53.7769ZM59.8059 17.1562C59.1809 17.1562 58.6158 17.0547 58.1106 16.8516C57.6106 16.6432 57.1835 16.3542 56.8294 15.9844C56.4804 15.6146 56.2122 15.1797 56.0247 14.6797C55.8372 14.1797 55.7434 13.6406 55.7434 13.0625V12.75C55.7434 12.0885 55.8398 11.4896 56.0325 10.9531C56.2252 10.4167 56.4934 9.95833 56.8372 9.57812C57.1809 9.19271 57.5872 8.89844 58.0559 8.69531C58.5247 8.49219 59.0325 8.39062 59.5794 8.39062C60.1835 8.39062 60.7122 8.49219 61.1653 8.69531C61.6184 8.89844 61.9934 9.1849 62.2903 9.55469C62.5924 9.91927 62.8164 10.3542 62.9622 10.8594C63.1132 11.3646 63.1887 11.9219 63.1887 12.5312V13.3359H56.6575V11.9844H61.3294V11.8359C61.319 11.4974 61.2512 11.1797 61.1262 10.8828C61.0065 10.5859 60.8216 10.3464 60.5716 10.1641C60.3216 9.98177 59.9882 9.89062 59.5716 9.89062C59.2591 9.89062 58.9804 9.95833 58.7356 10.0938C58.496 10.224 58.2955 10.4141 58.1341 10.6641C57.9726 10.9141 57.8476 11.2161 57.7591 11.5703C57.6757 11.9193 57.6341 12.3125 57.6341 12.75V13.0625C57.6341 13.4323 57.6835 13.776 57.7825 14.0938C57.8867 14.4062 58.0377 14.6797 58.2356 14.9141C58.4335 15.1484 58.6731 15.3333 58.9544 15.4688C59.2356 15.599 59.5559 15.6641 59.9153 15.6641C60.3684 15.6641 60.7721 15.5729 61.1262 15.3906C61.4804 15.2083 61.7877 14.9505 62.0481 14.6172L63.0403 15.5781C62.858 15.8438 62.621 16.099 62.3294 16.3438C62.0377 16.5833 61.6809 16.7786 61.2591 16.9297C60.8424 17.0807 60.358 17.1562 59.8059 17.1562ZM69.6397 14.7109C69.6397 14.5234 69.5928 14.3542 69.4991 14.2031C69.4053 14.0469 69.2256 13.9062 68.96 13.7812C68.6996 13.6562 68.3142 13.5417 67.8037 13.4375C67.3558 13.3385 66.9444 13.2214 66.5694 13.0859C66.1996 12.9453 65.8819 12.776 65.6162 12.5781C65.3506 12.3802 65.1449 12.1458 64.9991 11.875C64.8532 11.6042 64.7803 11.2917 64.7803 10.9375C64.7803 10.5938 64.8558 10.2682 65.0069 9.96094C65.1579 9.65365 65.3741 9.38281 65.6553 9.14844C65.9366 8.91406 66.2777 8.72917 66.6787 8.59375C67.085 8.45833 67.5381 8.39062 68.0381 8.39062C68.7465 8.39062 69.3532 8.51042 69.8584 8.75C70.3689 8.98438 70.7595 9.30469 71.0303 9.71094C71.3011 10.112 71.4366 10.5651 71.4366 11.0703H69.5537C69.5537 10.8464 69.4965 10.638 69.3819 10.4453C69.2725 10.2474 69.1058 10.0885 68.8819 9.96875C68.6579 9.84375 68.3767 9.78125 68.0381 9.78125C67.7152 9.78125 67.447 9.83333 67.2334 9.9375C67.0251 10.0365 66.8689 10.1667 66.7647 10.3281C66.6657 10.4896 66.6162 10.6667 66.6162 10.8594C66.6162 11 66.6423 11.1276 66.6944 11.2422C66.7517 11.3516 66.8454 11.4531 66.9756 11.5469C67.1058 11.6354 67.2829 11.7188 67.5069 11.7969C67.736 11.875 68.0225 11.9505 68.3662 12.0234C69.0121 12.1589 69.5668 12.3333 70.0303 12.5469C70.4991 12.7552 70.8584 13.026 71.1084 13.3594C71.3584 13.6875 71.4834 14.1042 71.4834 14.6094C71.4834 14.9844 71.4027 15.3281 71.2412 15.6406C71.085 15.9479 70.8558 16.2161 70.5537 16.4453C70.2517 16.6693 69.8897 16.8438 69.4678 16.9688C69.0511 17.0938 68.5824 17.1562 68.0616 17.1562C67.2959 17.1562 66.6475 17.0208 66.1162 16.75C65.585 16.474 65.1814 16.1224 64.9053 15.6953C64.6345 15.263 64.4991 14.8151 64.4991 14.3516H66.3194C66.3402 14.7005 66.4366 14.9792 66.6084 15.1875C66.7855 15.3906 67.0043 15.5391 67.2647 15.6328C67.5303 15.7214 67.8037 15.7656 68.085 15.7656C68.4235 15.7656 68.7074 15.7214 68.9366 15.6328C69.1657 15.5391 69.3402 15.4141 69.46 15.2578C69.5798 15.0964 69.6397 14.9141 69.6397 14.7109Z" fill="#33363B"/>
</svg>
