<svg width="24" height="24" viewBox="0 0 24 24" fill="none" xmlns="http://www.w3.org/2000/svg">
<path d="M12.019 0C15.3386 0 18.3147 1.33547 20.4896 3.51037C22.6645 5.68527 23.9999 8.69961 23.9999 11.981C23.9999 15.3006 22.6645 18.2768 20.4896 20.4517C18.3147 22.6266 15.3004 23.9621 12.019 23.9621C8.69945 23.9621 5.7233 22.6266 3.54842 20.4517C1.37354 18.2768 0.0380859 15.2625 0.0380859 11.981C0.0380859 8.66145 1.37354 5.68527 3.54842 3.51037C5.7233 1.33547 8.73761 0 12.019 0ZM17.7042 9.95876C18.2766 9.95876 18.7726 10.1877 19.1541 10.5693C19.5357 10.9508 19.7646 11.4469 19.7646 12.0192C19.7646 12.5915 19.5357 13.0876 19.1541 13.4691L19.116 13.5073C18.7344 13.8507 18.2384 14.0796 17.7042 14.0796C17.1319 14.0796 16.6359 13.8507 16.2543 13.4691C15.8727 13.0876 15.6438 12.5915 15.6438 12.0192C15.6438 11.4469 15.8727 10.9508 16.2543 10.5693L16.2925 10.5311C16.674 10.1877 17.17 9.95876 17.7042 9.95876ZM18.5818 11.1034C18.3529 10.8745 18.0476 10.7219 17.7042 10.7219C17.3608 10.7219 17.0556 10.8745 16.8266 11.0653C16.5977 11.2942 16.4451 11.5995 16.4451 11.9429C16.4451 12.2863 16.5977 12.5915 16.8266 12.8205C17.0556 13.0494 17.3608 13.202 17.7042 13.202C18.0476 13.202 18.3529 13.0494 18.5818 12.8586C18.8107 12.6297 18.9634 12.3244 18.9634 11.981C18.9634 11.6376 18.8107 11.3324 18.5818 11.1034ZM12.019 9.95876C12.5913 9.95876 13.0874 10.1877 13.4689 10.5693C13.8505 10.9508 14.0794 11.4469 14.0794 12.0192C14.0794 12.5915 13.8505 13.0876 13.4689 13.4691C13.0874 13.8507 12.5913 14.0796 12.019 14.0796C11.4467 14.0796 10.9506 13.8507 10.5691 13.4691C10.1875 13.0876 9.95859 12.5915 9.95859 12.0192C9.95859 11.4469 10.1875 10.9508 10.5691 10.5693L10.6072 10.5311C10.9888 10.1877 11.4848 9.95876 12.019 9.95876ZM12.8966 11.1034C12.6677 10.8745 12.3624 10.7219 12.019 10.7219C11.6756 10.7219 11.3704 10.8745 11.1414 11.0653C10.9125 11.2942 10.7599 11.5995 10.7599 11.9429C10.7599 12.2863 10.9125 12.5915 11.1414 12.8205C11.3704 13.0494 11.6756 13.202 12.019 13.202C12.3624 13.202 12.6677 13.0494 12.8966 12.8205C13.1255 12.5915 13.2781 12.2863 13.2781 11.9429C13.2781 11.5995 13.1255 11.2942 12.8966 11.0653V11.1034ZM6.33379 9.95876C6.90613 9.95876 7.40216 10.1877 7.78371 10.5693C8.16527 10.9508 8.39421 11.4469 8.39421 12.0192C8.39421 12.5915 8.16527 13.0876 7.78371 13.4691C7.40216 13.8507 6.90613 14.0796 6.33379 14.0796C5.76146 14.0796 5.26543 13.8507 4.88387 13.4691C4.50231 13.0876 4.27338 12.5915 4.27338 12.0192C4.27338 11.4469 4.50231 10.9508 4.88387 10.5693L4.92203 10.5311C5.30359 10.1877 5.79961 9.95876 6.33379 9.95876ZM7.21138 11.1034C6.98244 10.8745 6.6772 10.7219 6.33379 10.7219C5.99039 10.7219 5.68514 10.8745 5.45621 11.0653C5.22727 11.2942 5.07465 11.5995 5.07465 11.9429C5.07465 12.2863 5.22727 12.5915 5.45621 12.8205C5.68514 13.0494 5.99039 13.202 6.33379 13.202C6.6772 13.202 6.98244 13.0494 7.21138 12.8205C7.44031 12.5915 7.59293 12.2863 7.59293 11.9429C7.59293 11.5995 7.44031 11.2942 7.21138 11.0653V11.1034ZM19.9173 4.04455C17.895 2.02228 15.0715 0.763123 11.9809 0.763123C8.89023 0.763123 6.0667 2.02228 4.04445 4.04455C2.02219 6.06683 0.763046 8.89039 0.763046 11.981C0.763046 15.0717 2.02219 17.8952 4.04445 19.9175C6.0667 21.9398 8.89023 23.199 11.9809 23.199C15.0715 23.199 17.895 21.9398 19.9173 19.9175C21.9395 17.8952 23.1987 15.0717 23.1987 11.981C23.1987 8.89039 21.9395 6.06683 19.9173 4.04455Z" fill="#7B7B7B"/>
</svg>
