<svg width="64" height="63" viewBox="0 0 64 63" fill="none" xmlns="http://www.w3.org/2000/svg">
<path d="M31.9899 5.36719C17.5964 5.36719 5.86743 17.0962 5.86743 31.4896C5.86743 45.8831 17.5964 57.6121 31.9899 57.6121C46.3834 57.6121 58.1123 45.8831 58.1123 31.4896C58.1123 17.0962 46.3834 5.36719 31.9899 5.36719ZM44.4764 25.4815L29.665 40.2929C29.2993 40.6586 28.8029 40.8676 28.2805 40.8676C27.758 40.8676 27.2617 40.6586 26.896 40.2929L19.5033 32.9002C18.7458 32.1427 18.7458 30.8888 19.5033 30.1313C20.2609 29.3737 21.5148 29.3737 22.2723 30.1313L28.2805 36.1394L41.7074 22.7125C42.465 21.9549 43.7189 21.9549 44.4764 22.7125C45.234 23.47 45.234 24.6978 44.4764 25.4815Z" fill="#23A26D"/>
</svg>
