<svg width="4" height="16" viewBox="0 0 4 16" fill="none" xmlns="http://www.w3.org/2000/svg">
<path d="M3.875 2.375C3.875 1.34366 3.03134 0.5 2 0.5C0.968656 0.5 0.125 1.34366 0.125 2.375C0.125 3.40634 0.968656 4.25 2 4.25C3.03134 4.25 3.875 3.40634 3.875 2.375ZM3.875 13.625C3.875 12.5937 3.03134 11.75 2 11.75C0.968656 11.75 0.125 12.5937 0.125 13.625C0.125 14.6563 0.968656 15.5 2 15.5C3.03134 15.5 3.875 14.6563 3.875 13.625ZM3.875 8C3.875 6.96866 3.03134 6.125 2 6.125C0.968656 6.125 0.125 6.96866 0.125 8C0.125 9.03134 0.968656 9.875 2 9.875C3.03134 9.875 3.875 9.03134 3.875 8Z" fill="#565B62"/>
</svg>
