<svg width="202" height="52" viewBox="0 0 202 52" fill="none" xmlns="http://www.w3.org/2000/svg">
<path d="M35.4012 51.2921L32.0054 41.2731H14.3916L11.0472 51.2921H0.362305L18.5078 2.66719H27.8206L46.0861 51.2921H35.4012ZM23.1728 14.9602L17.1014 33.1518H29.2956L23.1728 14.9602ZM69.6341 41.3073C69.6341 40.1218 69.0452 39.1929 67.8675 38.5204C66.7013 37.8365 64.8204 37.2267 62.225 36.691C53.6039 34.89 49.2933 31.2426 49.2933 25.7487C49.2933 22.5457 50.6311 19.8672 53.3066 17.7129C55.9707 15.57 59.458 14.4986 63.7685 14.4986C68.3649 14.4986 72.0409 15.5757 74.7964 17.73C77.5634 19.8957 78.9469 22.6996 78.9469 26.1419H69.2568C69.2568 24.7627 68.8108 23.6229 67.919 22.7224C67.0272 21.822 65.6322 21.3717 63.7342 21.3717C62.0992 21.3717 60.8358 21.7365 59.9439 22.466C59.0521 23.2068 58.6062 24.1472 58.6062 25.287C58.6062 26.3471 59.115 27.2076 60.1326 27.8687C61.1502 28.5184 62.8653 29.0826 65.2778 29.5614C67.6903 30.0401 69.7198 30.5815 71.3663 31.1856C76.4886 33.0549 79.0498 36.2977 79.0498 40.914C79.0498 44.2081 77.632 46.8696 74.7964 48.8985C71.9494 50.9388 68.2849 51.9589 63.8028 51.9589C60.7614 51.9589 58.063 51.4175 55.7077 50.3347C53.3523 49.2632 51.5058 47.7872 50.168 45.9065C48.8302 44.0257 48.1614 41.9912 48.1614 39.8027H57.337C57.4285 41.5238 58.0631 42.8403 59.2407 43.7522C60.4299 44.6641 62.0191 45.12 64.0086 45.12C65.8609 45.12 67.2616 44.7666 68.2106 44.0599C69.1596 43.3647 69.6341 42.4471 69.6341 41.3073ZM94.7256 0V19.0978C97.2868 16.0316 100.511 14.4986 104.399 14.4986C112.265 14.4986 116.25 19.0465 116.353 28.1423V51.2921H106.68V28.4158C106.68 26.3414 106.234 24.814 105.342 23.8337C104.45 22.8421 102.964 22.3463 100.883 22.3463C98.0471 22.3463 95.9947 23.4348 94.7256 25.6119V51.2921H85.0354V0H94.7256ZM125.563 6.27474H135.253V15.1654H141.444V22.2437H135.253V40.2643C135.253 41.6093 135.51 42.5668 136.025 43.1367C136.539 43.718 137.522 44.0087 138.974 44.0087C140.038 44.0087 140.987 43.9346 141.821 43.7864V51.087C139.923 51.6683 137.968 51.9589 135.956 51.9589C129.164 51.9589 125.7 48.5395 125.563 41.7005V22.2437H120.28V15.1654H125.563V6.27474ZM167.342 14.926L167.205 24.2099C165.89 24.0275 164.729 23.9363 163.723 23.9363C160.064 23.9363 157.663 25.173 156.52 27.6465V51.2921H146.847V15.1654H155.988L156.262 19.4739C158.195 16.157 160.882 14.4986 164.323 14.4986C165.398 14.4986 166.404 14.6411 167.342 14.926ZM201.643 51.2921H191.867C191.421 50.4259 191.095 49.3487 190.89 48.0607C188.546 50.6595 185.499 51.9589 181.748 51.9589C178.192 51.9589 175.248 50.9331 172.916 48.8814C170.583 46.8411 169.417 44.2594 169.417 41.1363C169.417 37.3065 170.84 34.3714 173.688 32.3311C176.535 30.2795 180.651 29.2422 186.036 29.2194H190.495V27.1506C190.495 25.4751 190.061 24.1415 189.192 23.1499C188.334 22.1468 186.979 21.6453 185.127 21.6453C183.503 21.6453 182.223 22.0328 181.285 22.8079C180.359 23.583 179.896 24.6487 179.896 26.0051H170.223C170.223 23.9192 170.869 21.9872 172.161 20.2091C173.465 18.4196 175.3 17.0233 177.666 16.0202C180.033 15.0058 182.686 14.4986 185.624 14.4986C190.095 14.4986 193.645 15.6156 196.275 17.8497C198.893 20.0837 200.203 23.2296 200.203 27.2874V42.9486C200.225 46.3681 200.706 48.9612 201.643 50.7279V51.2921ZM183.858 44.5729C185.287 44.5729 186.602 44.2594 187.803 43.6325C189.015 42.9942 189.912 42.1393 190.495 41.0679V34.8616H186.876C182.028 34.8616 179.45 36.5314 179.141 39.8711L179.107 40.4353C179.107 41.6435 179.53 42.6352 180.376 43.4102C181.222 44.1853 182.383 44.5729 183.858 44.5729Z" fill="#A2A2A2"/>
</svg>
